<svg width="95" height="24" viewBox="0 0 95 24" fill="none" xmlns="http://www.w3.org/2000/svg">
<path d="M0.656 23V0.599998H10.832C13.264 0.599998 15.408 1.06933 17.264 2.008C19.12 2.92533 20.5707 4.216 21.616 5.88C22.6613 7.544 23.184 9.51733 23.184 11.8C23.184 14.0613 22.6613 16.0347 21.616 17.72C20.5707 19.384 19.12 20.6853 17.264 21.624C15.408 22.5413 13.264 23 10.832 23H0.656ZM5.84 18.744H10.576C12.0693 18.744 13.36 18.4667 14.448 17.912C15.5573 17.336 16.4107 16.5253 17.008 15.48C17.6267 14.4347 17.936 13.208 17.936 11.8C17.936 10.3707 17.6267 9.144 17.008 8.12C16.4107 7.07467 15.5573 6.27467 14.448 5.72C13.36 5.144 12.0693 4.856 10.576 4.856H5.84V18.744ZM31.8615 9.624H42.6455V13.656H31.8615V9.624ZM32.2455 18.84H44.4375V23H27.0935V0.599998H44.0215V4.76H32.2455V18.84ZM59.2823 23.384C57.5543 23.384 55.9436 23.1067 54.4503 22.552C52.9783 21.976 51.6983 21.1653 50.6102 20.12C49.5223 19.0747 48.6689 17.848 48.0503 16.44C47.4529 15.032 47.1543 13.4853 47.1543 11.8C47.1543 10.1147 47.4529 8.568 48.0503 7.16C48.6689 5.752 49.5223 4.52533 50.6102 3.48C51.7196 2.43467 53.0103 1.63467 54.4823 1.08C55.9543 0.503999 57.5649 0.216 59.3143 0.216C61.2556 0.216 63.0049 0.557333 64.5623 1.24C66.1409 1.90133 67.4636 2.88267 68.5303 4.184L65.2023 7.256C64.4343 6.38133 63.5809 5.73067 62.6423 5.304C61.7036 4.856 60.6796 4.632 59.5703 4.632C58.5249 4.632 57.5649 4.80267 56.6903 5.144C55.8156 5.48533 55.0583 5.976 54.4183 6.616C53.7783 7.256 53.2769 8.01333 52.9143 8.888C52.5729 9.76267 52.4023 10.7333 52.4023 11.8C52.4023 12.8667 52.5729 13.8373 52.9143 14.712C53.2769 15.5867 53.7783 16.344 54.4183 16.984C55.0583 17.624 55.8156 18.1147 56.6903 18.456C57.5649 18.7973 58.5249 18.968 59.5703 18.968C60.6796 18.968 61.7036 18.7547 62.6423 18.328C63.5809 17.88 64.4343 17.208 65.2023 16.312L68.5303 19.384C67.4636 20.6853 66.1409 21.6773 64.5623 22.36C63.0049 23.0427 61.2449 23.384 59.2823 23.384Z" fill="#F9FAFB"/>
<path d="M82.4423 23.384C80.6716 23.384 79.0289 23.096 77.5143 22.52C76.0209 21.944 74.7196 21.1333 73.6102 20.088C72.5223 19.0427 71.6689 17.816 71.0503 16.408C70.4529 15 70.1543 13.464 70.1543 11.8C70.1543 10.136 70.4529 8.6 71.0503 7.192C71.6689 5.784 72.5329 4.55733 73.6423 3.512C74.7516 2.46667 76.0529 1.656 77.5463 1.08C79.0396 0.503999 80.6609 0.216 82.4103 0.216C84.1809 0.216 85.8022 0.503999 87.2743 1.08C88.7676 1.656 90.0583 2.46667 91.1463 3.512C92.2556 4.55733 93.1196 5.784 93.7383 7.192C94.3569 8.57867 94.6663 10.1147 94.6663 11.8C94.6663 13.464 94.3569 15.0107 93.7383 16.44C93.1196 17.848 92.2556 19.0747 91.1463 20.12C90.0583 21.144 88.7676 21.944 87.2743 22.52C85.8022 23.096 84.1916 23.384 82.4423 23.384ZM82.4103 18.968C83.4129 18.968 84.3303 18.7973 85.1623 18.456C86.0156 18.1147 86.7623 17.624 87.4023 16.984C88.0423 16.344 88.5329 15.5867 88.8743 14.712C89.2369 13.8373 89.4183 12.8667 89.4183 11.8C89.4183 10.7333 89.2369 9.76267 88.8743 8.888C88.5329 8.01333 88.0423 7.256 87.4023 6.616C86.7836 5.976 86.0476 5.48533 85.1943 5.144C84.3409 4.80267 83.4129 4.632 82.4103 4.632C81.4076 4.632 80.4796 4.80267 79.6263 5.144C78.7943 5.48533 78.0583 5.976 77.4183 6.616C76.7783 7.256 76.2769 8.01333 75.9143 8.888C75.5729 9.76267 75.4023 10.7333 75.4023 11.8C75.4023 12.8453 75.5729 13.816 75.9143 14.712C76.2769 15.5867 76.7676 16.344 77.3863 16.984C78.0263 17.624 78.7729 18.1147 79.6263 18.456C80.4796 18.7973 81.4076 18.968 82.4103 18.968Z" fill="#3F497F"/>
</svg>
